<?xml version="1.0" standalone="no"?>
<!DOCTYPE svg PUBLIC "-//W3C//DTD SVG 20010904//EN"
 "http://www.w3.org/TR/2001/REC-SVG-20010904/DTD/svg10.dtd">
<svg version="1.0" xmlns="http://www.w3.org/2000/svg"
 width="300.000000pt" height="112.000000pt" viewBox="0 0 300.000000 112.000000"
 preserveAspectRatio="xMidYMid meet">
<metadata>
Created by potrace 1.10, written by Peter Selinger 2001-2011
</metadata>
<g transform="translate(0.000000,112.000000) scale(0.100000,-0.100000)"
fill="#000000" stroke="none">
<path d="M454 905 c-4 -9 -2 -21 4 -27 15 -15 44 -1 40 19 -4 23 -36 29 -44 8z"/>
<path d="M600 871 c0 -24 25 -34 40 -16 15 18 5 35 -21 35 -12 0 -19 -7 -19
-19z"/>
<path d="M317 873 c-15 -14 -7 -43 12 -43 26 0 36 17 21 35 -14 16 -23 19 -33
8z"/>
<path d="M464 829 c-8 -14 11 -33 25 -25 6 4 11 14 11 22 0 16 -26 19 -36 3z"/>
<path d="M581 806 c-12 -14 -5 -26 16 -26 15 0 18 26 4 34 -5 3 -14 0 -20 -8z"/>
<path d="M364 789 c-8 -14 11 -33 25 -25 16 10 13 36 -3 36 -8 0 -18 -5 -22
-11z"/>
<path d="M722 778 c2 -13 10 -23 18 -23 8 0 16 10 18 23 3 17 -2 22 -18 22
-16 0 -21 -5 -18 -22z"/>
<path d="M205 760 c-9 -15 14 -40 31 -33 22 8 18 43 -5 43 -11 0 -23 -5 -26
-10z"/>
<path d="M810 600 l0 -160 30 0 c21 0 30 5 30 17 0 15 1 15 18 0 27 -25 74
-21 101 7 40 43 38 161 -4 196 -21 18 -73 15 -95 -5 -20 -18 -20 -17 -20 43
l0 62 -30 0 -30 0 0 -160z m146 -16 c10 -52 -6 -98 -36 -102 -32 -5 -50 22
-50 75 0 85 71 107 86 27z"/>
<path d="M1124 745 c-9 -23 3 -32 36 -27 l30 4 0 -121 0 -121 -45 0 c-38 0
-45 -3 -45 -20 0 -19 7 -20 110 -20 103 0 110 1 110 20 0 16 -7 20 -35 20
l-35 0 0 140 0 140 -60 0 c-44 0 -62 -4 -66 -15z"/>
<path d="M2090 735 c0 -21 5 -25 30 -25 25 0 30 4 30 25 0 21 -5 25 -30 25
-25 0 -30 -4 -30 -25z"/>
<path d="M664 739 c-10 -17 13 -36 27 -22 12 12 4 33 -11 33 -5 0 -12 -5 -16
-11z"/>
<path d="M297 724 c-14 -14 -7 -35 11 -32 9 2 17 10 17 17 0 16 -18 25 -28 15z"/>
<path d="M1473 668 c-17 -4 -41 -21 -53 -36 -18 -23 -21 -37 -18 -86 4 -49 9
-63 32 -83 39 -33 117 -33 151 1 42 42 46 144 6 181 -26 23 -79 33 -118 23z
m81 -80 c6 -22 6 -50 0 -70 -8 -26 -16 -34 -39 -36 -37 -5 -55 19 -55 71 0 58
15 79 53 75 28 -3 33 -8 41 -40z"/>
<path d="M2422 672 c-12 -2 -28 -12 -35 -23 -15 -25 -27 -24 -27 1 0 15 -7 20
-27 20 l-28 0 3 -115 3 -115 30 0 29 0 0 78 c0 88 13 116 51 110 23 -3 24 -6
27 -95 l3 -93 29 0 30 0 0 93 c0 120 -19 150 -88 139z"/>
<path d="M2681 669 c-49 -10 -73 -39 -79 -97 -5 -54 15 -104 47 -122 34 -18
106 -12 135 11 14 11 26 25 26 30 0 12 -57 12 -65 -1 -11 -18 -64 -11 -75 9
-23 43 -15 48 70 43 73 -4 80 -3 80 14 0 18 -35 104 -42 104 -2 0 -17 4 -33 8
-17 5 -45 5 -64 1z m61 -46 c33 -29 22 -43 -32 -43 -54 0 -62 10 -33 42 20 22
41 23 65 1z"/>
<path d="M1736 651 c-38 -42 -39 -152 -2 -189 22 -23 85 -21 102 3 20 27 28
12 17 -32 -10 -43 -42 -56 -72 -29 -12 11 -25 13 -45 8 -28 -8 -28 -8 -9 -31
40 -49 166 -33 178 22 2 12 6 77 7 145 l3 122 -27 0 c-18 0 -28 -5 -28 -15 0
-8 -4 -15 -9 -15 -5 0 -11 7 -15 15 -8 23 -79 20 -100 -4z m102 -33 c20 -26
18 -100 -4 -122 -19 -20 -29 -20 -48 0 -19 19 -22 104 -4 122 16 16 43 15 56
0z"/>
<path d="M2020 650 c0 -16 7 -20 35 -20 l35 0 0 -75 0 -75 -45 0 c-38 0 -45
-3 -45 -20 0 -19 7 -20 110 -20 103 0 110 1 110 20 0 16 -7 20 -37 20 l-38 0
3 95 4 95 -66 0 c-59 0 -66 -2 -66 -20z"/>
<path d="M167 633 c-12 -12 -7 -41 7 -46 22 -9 41 19 26 38 -14 16 -23 19 -33
8z"/>
<path d="M254 619 c-10 -17 13 -36 27 -22 12 12 4 33 -11 33 -5 0 -12 -5 -16
-11z"/>
<path d="M274 509 c-8 -14 11 -33 25 -25 16 10 13 36 -3 36 -8 0 -18 -5 -22
-11z"/>
<path d="M184 479 c-8 -14 21 -43 35 -35 19 12 13 46 -8 46 -11 0 -23 -5 -27
-11z"/>
<path d="M644 439 c-8 -14 11 -33 25 -25 6 4 11 14 11 22 0 16 -26 19 -36 3z"/>
<path d="M351 430 c-16 -9 -6 -30 15 -30 15 0 20 25 6 34 -4 2 -14 1 -21 -4z"/>
<path d="M443 384 c-7 -19 2 -28 22 -21 19 8 19 23 0 31 -9 3 -18 -1 -22 -10z"/>
<path d="M550 380 c0 -23 25 -27 33 -6 7 16 -1 26 -20 26 -7 0 -13 -9 -13 -20z"/>
<path d="M694 385 c-4 -9 -2 -21 4 -27 15 -15 44 -1 40 19 -4 23 -36 29 -44 8z"/>
<path d="M287 373 c-15 -14 -7 -43 12 -43 26 0 36 17 21 35 -14 16 -23 19 -33
8z"/>
<path d="M571 316 c-16 -19 -6 -36 20 -36 15 0 20 6 17 22 -4 27 -21 33 -37
14z"/>
<path d="M416 305 c-8 -22 1 -35 25 -35 15 0 20 6 17 22 -4 27 -33 36 -42 13z"/>
</g>
</svg>
